<?xml version="1.0" encoding="UTF-8"?>
<svg width="169px" height="34px" viewBox="0 0 169 34" version="1.1" xmlns="http://www.w3.org/2000/svg" xmlns:xlink="http://www.w3.org/1999/xlink">
    <!-- Generator: Sketch 49.2 (51160) - http://www.bohemiancoding.com/sketch -->
    <title>Combined Shape</title>
    <desc>Created with Sketch.</desc>
    <defs></defs>
    <g id="Symbols" stroke="none" stroke-width="1" fill="none" fill-rule="evenodd">
        <g id="Header" transform="translate(-166.000000, -29.000000)" fill="#8B0F05">
            <g id="Group-5">
                <g>
                    <path d="M305.661055,52.2218504 C305.661055,51.2763487 305.689166,50.3300362 305.654838,49.385886 C305.60186,47.9365493 304.836917,47.0802459 303.421638,47.0207804 C301.803905,46.9529357 300.178875,46.950503 298.561684,47.0237537 C297.159649,47.0872737 296.397409,47.8532976 296.35254,49.2520886 C296.288749,51.2303981 296.318753,53.2127621 296.343079,55.1926934 C296.359297,56.5139089 297.080722,57.3818351 298.36788,57.4707631 C300.109949,57.5910456 301.876616,57.6126694 303.61436,57.4640056 C305.010718,57.3442637 305.607536,56.4960693 305.654027,55.0580851 C305.684571,54.1136646 305.659703,53.167352 305.661055,52.2218504 M300.967604,62.9621329 C299.34798,62.9621329 297.728085,62.9637547 296.108461,62.9618626 C292.365107,62.9580784 290.190561,61.0340988 290.031356,57.2826358 C289.888368,53.9144551 289.862149,50.5281645 290.041086,47.1634976 C290.214888,43.898841 292.203198,41.2847911 296.160628,41.4458886 C299.394471,41.5775236 302.638315,41.4723778 305.877834,41.4777837 C309.42333,41.48346 311.60166,43.1587656 311.834116,46.6815567 C312.084952,50.4819435 312.041975,54.3266593 311.779245,58.127857 C311.560574,61.2914223 309.389272,62.9559161 306.231924,62.961322 C304.477151,62.9642953 302.722377,62.9618626 300.967604,62.9621329 Z M259.334285,50.682018 L259.334285,54.640529 C258.382566,54.640529 257.512748,54.625933 256.64347,54.6443132 C255.701753,54.6643152 254.749224,54.6364746 253.822643,54.7737858 C252.820919,54.921909 252.369792,55.7328024 252.404661,56.6396515 C252.441691,57.6081284 253.100137,58.1906202 254.102131,58.2108925 C255.541466,58.2398144 256.984586,58.2708986 258.421219,58.2000806 C260.124906,58.1157477 261.167444,57.0691546 261.232586,55.3519528 C261.300972,53.5542022 261.301512,51.7499645 261.234208,49.9519436 C261.170958,48.2604201 260.332495,47.1440903 258.654216,47.0024542 C255.884204,46.7689169 253.090406,46.8091913 250.306609,46.7491852 C249.24542,46.7264802 248.18369,46.7456713 246.96735,46.7456713 L246.96735,41.6954275 C247.542544,41.6200144 248.100168,41.4854061 248.658604,41.4829734 C252.934715,41.4659447 257.211096,41.4583763 261.487207,41.4802705 C264.780785,41.4970289 267.399701,44.0729668 267.44484,47.3738434 C267.488358,50.5690335 267.497278,53.766386 267.440786,56.9610355 C267.376455,60.5951893 264.968102,62.9211017 261.347463,62.9335354 C258.33175,62.9438067 255.315768,62.9311027 252.300055,62.9332651 C249.915218,62.9351572 247.907987,62.1269668 246.856258,59.8937665 C245.69641,57.4308131 245.462873,54.828386 246.9214,52.3970574 C247.364958,51.6575227 248.32884,50.7998678 249.095134,50.7587825 C252.436826,50.5801157 255.793654,50.682018 259.334285,50.682018 Z M202.192441,54.1114211 L202.192441,50.4199643 C202.681139,50.3248194 203.182001,50.1604784 203.687999,50.1418278 C204.947586,50.0950663 206.209877,50.1293941 207.470546,50.1026347 C208.414966,50.0829029 209.148825,49.5555519 209.059627,48.650595 C208.99908,48.0359378 208.360366,47.0096171 207.926809,46.9809655 C205.977691,46.8525741 203.98857,46.863386 202.057022,47.1334135 C200.999887,47.2812664 200.377662,48.3089386 200.36712,49.4741923 C200.34901,51.4554751 200.310358,53.4397311 200.389825,55.4183109 C200.460103,57.1693 201.730502,58.1853494 203.87937,58.2215693 C206.851023,58.2715743 209.824569,58.2199475 212.797034,58.2496802 C213.388716,58.2556268 213.978776,58.4315906 214.552888,58.5264652 L214.552888,62.9361032 C213.288706,62.9361032 212.216705,62.9361032 211.145244,62.9361032 C207.587044,62.9366438 204.028574,62.9396171 200.470374,62.9369141 C197.052999,62.9342111 194.43057,60.5126133 194.328397,57.0882106 C194.231901,53.8481511 194.231631,50.6007935 194.325694,47.3604636 C194.431381,43.7071188 196.83568,41.4809462 200.486321,41.4760808 C203.188759,41.472567 205.897413,41.5917683 208.592552,41.4514837 C214.603704,41.1384789 216.005469,45.910316 215.457575,49.7720605 C215.003475,52.9718457 213.257892,54.3684743 210.027022,54.3649604 C207.595694,54.3625278 205.164635,54.3433366 202.733037,54.3219831 C202.609511,54.3209019 202.486795,54.2295413 202.192441,54.1114211 Z M314.196032,41.6626944 C314.651484,41.6064725 315.167212,41.4894335 315.683481,41.4875415 C319.916884,41.4715939 324.150288,41.4561869 328.383152,41.4818652 C332.271656,41.5053811 334.768667,44.0350981 334.7811,47.9341436 C334.795156,52.3026965 334.78948,56.670979 334.781371,61.0395318 C334.778397,62.778898 334.588919,62.9524292 332.809008,62.9605382 C331.908375,62.9645926 331.005311,62.9199935 330.107381,62.9697283 C328.8805,63.0373027 328.415858,62.4850843 328.42721,61.2836107 C328.460727,57.7713613 328.439374,54.2583009 328.432346,50.7457812 C328.431535,50.2059965 328.429102,49.6618871 328.364501,49.1277787 C328.206918,47.8268354 327.445759,47.0943284 326.143194,47.0202668 C325.110656,46.9616122 324.071902,46.9762083 323.036932,47.0032381 C321.217557,47.0508105 320.406123,47.8314305 320.387473,49.6756723 C320.349091,53.4582195 320.373147,57.2413073 320.364768,61.0241248 C320.361254,62.7526792 320.155557,62.9532401 318.412137,62.9624302 C317.376356,62.9678362 316.340574,62.9559431 315.304793,62.9616193 C314.502279,62.9659441 313.990065,62.6294234 313.989795,61.7809586 C313.988713,55.2516453 313.998444,48.7226023 314.011689,42.193289 C314.011959,42.0676005 314.096022,41.9421823 314.196032,41.6626944 Z M186.08545,62.8437154 L186.08545,29 L201.539456,29 L201.539456,34.76383 C199.398157,34.76383 197.424983,34.7549102 195.451539,34.7662627 C192.903712,34.7808587 192.072546,35.6158086 192.070654,38.1849891 C192.064167,45.7917093 192.067951,53.3981593 192.067951,61.0048796 C192.067681,61.5787218 192.067951,62.152564 192.067951,62.8437154 L186.08545,62.8437154 Z M181.395351,62.8782865 L175.565028,62.8782865 C175.523132,62.2022718 175.448529,61.5486917 175.447719,60.895382 C175.439339,53.4181343 175.442042,45.941157 175.442042,38.4641796 C175.442042,35.4249513 174.784137,34.7716416 171.698688,34.7624515 C169.824173,34.7570455 167.949658,34.7616406 166,34.7616406 L166,29.0288948 L181.395351,29.0288948 L181.395351,62.8782865 Z M288.335616,41.8373068 C288.335616,43.1606848 288.326966,44.2813394 288.338048,45.4017237 C288.34886,46.5264328 287.834483,47.0178342 286.684096,47.0005351 C284.028691,46.9608013 281.372474,46.9856687 278.716528,46.994048 C276.852014,46.9999945 276.071394,47.7468273 276.047608,49.5789057 C276.024903,51.3342195 276.025984,53.0900739 276.042743,54.845658 C276.060852,56.7015226 276.829309,57.5267418 278.774913,57.580531 C281.293818,57.6502679 283.815966,57.6045875 286.336763,57.6081014 C286.826543,57.6089123 287.316323,57.6083717 287.957469,57.6083717 C288.615914,59.4123391 288.408866,61.104133 288.025043,62.9629708 L282.863437,62.9629708 C280.387779,62.9629708 277.905365,62.8472834 275.437546,62.98946 C271.723654,63.2035359 269.818055,60.1140322 269.742912,57.595938 C269.636685,54.0431439 269.621548,50.4817003 269.743182,46.9299874 C269.858059,43.5866741 272.213434,41.4732157 275.525933,41.4740266 C279.127111,41.4751078 282.728558,41.4594305 286.329465,41.4915959 C286.960881,41.4972722 287.590675,41.7032391 288.335616,41.8373068 Z M230.67626,41.8511731 C230.51354,43.5959453 231.180635,45.220435 230.098903,46.723561 C228.87986,46.723561 227.757584,46.7046401 226.636119,46.7278857 C224.814311,46.7659977 223.898543,47.6520339 223.883946,49.4895182 C223.852862,53.3609934 223.878,57.2327389 223.863134,61.1044843 C223.860971,61.6694067 223.766637,62.2337885 223.709875,62.8514189 L217.709264,62.8514189 C217.648447,62.2824421 217.554653,61.8099616 217.553572,61.3369404 C217.543031,56.8351308 217.537895,52.3330509 217.552491,47.8312413 C217.566006,43.6145958 219.737038,41.4759997 223.967468,41.4751889 C225.588174,41.4746483 227.209961,41.4430234 228.829315,41.4905958 C229.417753,41.5076246 230.000785,41.7130509 230.67626,41.8511731 Z M244.948604,41.6984548 L244.948604,46.7189659 C243.60171,46.7189659 242.529439,46.7100461 241.457438,46.720858 C239.275324,46.7427521 238.361447,47.6450061 238.349014,49.8563123 C238.32793,53.5877732 238.343608,57.3195045 238.331714,61.0509654 C238.329822,61.6221046 238.261978,62.1929735 238.21846,62.8606091 L232.268124,62.8606091 C232.212173,62.300552 232.125407,61.8283418 232.124326,61.3558613 C232.114595,56.7251196 232.106486,52.094378 232.123245,47.4636363 C232.13676,43.7281209 234.358878,41.5019483 238.056281,41.4846493 C239.809703,41.47627 241.563395,41.4676205 243.316276,41.4922176 C243.834167,41.4995157 244.350706,41.6195279 244.948604,41.6984548 Z" id="Combined-Shape"></path>
                </g>
            </g>
        </g>
    </g>
</svg>